<svg width="85" height="84" viewBox="0 0 85 84" fill="none" xmlns="http://www.w3.org/2000/svg">
<path d="M42.75 77C62.0798 77 77.75 61.3298 77.75 42C77.75 22.67 62.0798 7 42.75 7C23.42 7 7.75 22.67 7.75 42C7.75 47.5989 9.06467 52.8906 11.4021 57.5837C12.0233 58.8308 12.23 60.2563 11.8699 61.6021L9.78529 69.3935C8.88033 72.7755 11.9745 75.8695 15.3567 74.9648L23.1479 72.8801C24.4938 72.52 25.9192 72.7268 27.1664 73.3477C31.8593 75.6854 37.1511 77 42.75 77Z" fill="#E0A75E"/>
<path d="M43 53.4277H43.0143" stroke="white" stroke-width="4" stroke-linecap="round" stroke-linejoin="round"/>
<path d="M35.8574 37.7143C35.8574 36.1063 36.3887 34.6225 37.2854 33.4288C38.5885 31.6939 40.6632 30.5718 42.9999 30.5718C46.9446 30.5718 50.1424 33.7696 50.1424 37.7143C50.1424 41.1729 47.6839 44.0575 44.4193 44.7158C43.6459 44.8716 42.9999 45.4963 42.9999 46.2852V47.7137" stroke="white" stroke-width="4" stroke-linecap="round"/>
</svg>
