<svg width="85" height="84" viewBox="0 0 85 84" fill="none" xmlns="http://www.w3.org/2000/svg">
<path d="M42.5 77C61.8298 77 77.5 61.3298 77.5 42C77.5 22.67 61.8298 7 42.5 7C23.17 7 7.5 22.67 7.5 42C7.5 47.5989 8.81467 52.8906 11.1521 57.5837C11.7733 58.8308 11.98 60.2563 11.6199 61.6021L9.53529 69.3935C8.63033 72.7755 11.7245 75.8695 15.1067 74.9648L22.8979 72.8801C24.2438 72.52 25.6692 72.7268 26.9164 73.3477C31.6093 75.6854 36.9011 77 42.5 77Z" fill="#E0A75E"/>
<path d="M53 42C53 43.9331 54.567 45.5 56.5 45.5C58.4331 45.5 60 43.9331 60 42C60 40.067 58.4331 38.5 56.5 38.5C54.567 38.5 53 40.067 53 42Z" fill="white"/>
<path d="M39 42C39 43.9331 40.567 45.5 42.5 45.5C44.4331 45.5 46 43.9331 46 42C46 40.067 44.4331 38.5 42.5 38.5C40.567 38.5 39 40.067 39 42Z" fill="white"/>
<path d="M25 42C25 43.9331 26.567 45.5 28.5 45.5C30.433 45.5 32 43.9331 32 42C32 40.067 30.433 38.5 28.5 38.5C26.567 38.5 25 40.067 25 42Z" fill="white"/>
</svg>
