<svg width="57" height="57" viewBox="0 0 57 57" fill="none" xmlns="http://www.w3.org/2000/svg">
<path d="M52.9813 50.3915H3.98128C3.36244 50.3915 2.76895 50.1457 2.33137 49.7081C1.89378 49.2705 1.64795 48.677 1.64795 48.0582C1.64795 47.4393 1.89378 46.8459 2.33137 46.4083C2.76895 45.9707 3.36244 45.7249 3.98128 45.7249H52.9813C53.6001 45.7249 54.1936 45.9707 54.6312 46.4083C55.0688 46.8459 55.3146 47.4393 55.3146 48.0582C55.3146 48.677 55.0688 49.2705 54.6312 49.7081C54.1936 50.1457 53.6001 50.3915 52.9813 50.3915Z" fill="#C8C8C8"/>
<path d="M23.8149 41.0582H12.1483C10.8596 41.0582 9.81494 42.1029 9.81494 43.3916V52.7249C9.81494 54.0136 10.8596 55.0582 12.1483 55.0582H23.8149C25.1036 55.0582 26.1483 54.0136 26.1483 52.7249V43.3916C26.1483 42.1029 25.1036 41.0582 23.8149 41.0582Z" fill="#E0A75E"/>
<path d="M52.9813 30.5581H3.98128C3.36244 30.5581 2.76895 30.3123 2.33137 29.8747C1.89378 29.4371 1.64795 28.8437 1.64795 28.2248C1.64795 27.606 1.89378 27.0125 2.33137 26.5749C2.76895 26.1373 3.36244 25.8915 3.98128 25.8915H52.9813C53.6001 25.8915 54.1936 26.1373 54.6312 26.5749C55.0688 27.0125 55.3146 27.606 55.3146 28.2248C55.3146 28.8437 55.0688 29.4371 54.6312 29.8747C54.1936 30.3123 53.6001 30.5581 52.9813 30.5581Z" fill="#C8C8C8"/>
<path d="M52.9813 10.7249H3.98128C3.36244 10.7249 2.76895 10.4791 2.33137 10.0415C1.89378 9.60389 1.64795 9.0104 1.64795 8.39156C1.64795 7.77272 1.89378 7.17923 2.33137 6.74164C2.76895 6.30406 3.36244 6.05823 3.98128 6.05823H52.9813C53.6001 6.05823 54.1936 6.30406 54.6312 6.74164C55.0688 7.17923 55.3146 7.77272 55.3146 8.39156C55.3146 9.0104 55.0688 9.60389 54.6312 10.0415C54.1936 10.4791 53.6001 10.7249 52.9813 10.7249Z" fill="#C8C8C8"/>
<path d="M23.8149 1.39111H12.1483C10.8596 1.39111 9.81494 2.43578 9.81494 3.72445V13.0578C9.81494 14.3464 10.8596 15.3911 12.1483 15.3911H23.8149C25.1036 15.3911 26.1483 14.3464 26.1483 13.0578V3.72445C26.1483 2.43578 25.1036 1.39111 23.8149 1.39111Z" fill="#69ABB5"/>
<path d="M44.8149 21.2249H33.1483C31.8596 21.2249 30.8149 22.2695 30.8149 23.5582V32.8915C30.8149 34.1802 31.8596 35.2249 33.1483 35.2249H44.8149C46.1036 35.2249 47.1483 34.1802 47.1483 32.8915V23.5582C47.1483 22.2695 46.1036 21.2249 44.8149 21.2249Z" fill="#B94B1A"/>
</svg>
