<svg width="25" height="24" viewBox="0 0 25 24" fill="none" xmlns="http://www.w3.org/2000/svg">
<g clip-path="url(#clip0_2678_17788)">
<path d="M5.20117 23.467C5.20117 23.7614 5.43981 24.0001 5.73421 24.0001H19.2646C19.559 24.0001 19.7976 23.7614 19.7976 23.467V6.19629H5.20117V23.467ZM15.4977 9.13543H17.4966V20.7564H15.4977V9.13543ZM11.4999 9.13543H13.4988V20.7564H11.4999V9.13543ZM7.50216 9.13543H9.50105V20.7564H7.50216V9.13543Z" fill="#DC2626"/>
<path d="M16.9927 2.4496V0.533037C16.9927 0.238641 16.7541 0 16.4597 0H8.54008C8.24568 0 8.00704 0.238641 8.00704 0.533037V2.4496V2.78275V3.1159H4.28108C3.98669 3.1159 3.74805 3.35454 3.74805 3.64893V4.99688C3.74805 5.29125 3.98669 5.52991 4.28108 5.52991H5.20167H19.7981H20.7187C21.0131 5.52991 21.2517 5.29125 21.2517 4.99688V3.64893C21.2517 3.35454 21.0131 3.1159 20.7187 3.1159H16.9927V2.78275V2.4496ZM14.9938 3.0063H10.0059V2.78272V2.44957V1.99889H14.9938V2.4496V2.78275V3.0063Z" fill="#DC2626"/>
</g>
<defs>
<clipPath id="clip0_2678_17788">
<rect width="24" height="24" fill="white" transform="translate(0.5)"/>
</clipPath>
</defs>
</svg>
