<svg width="32" height="32" viewBox="0 0 32 32" fill="none" xmlns="http://www.w3.org/2000/svg">
<path d="M20 18.6667L16 22.6667L12 18.6667" stroke="#E0A75E" stroke-width="3.75" stroke-linecap="round" stroke-linejoin="round"/>
<path d="M16.0007 22.6667V4M21.334 13.3333H25.334C25.6876 13.3333 26.0267 13.4738 26.2768 13.7239C26.5268 13.9739 26.6673 14.313 26.6673 14.6667V26.6667C26.6673 27.0203 26.5268 27.3594 26.2768 27.6095C26.0267 27.8595 25.6876 28 25.334 28H6.66732C6.3137 28 5.97456 27.8595 5.72451 27.6095C5.47446 27.3594 5.33398 27.0203 5.33398 26.6667V14.6667C5.33398 14.313 5.47446 13.9739 5.72451 13.7239C5.97456 13.4738 6.3137 13.3333 6.66732 13.3333H10.6673" stroke="#E0A75E" stroke-width="2" stroke-linecap="round" stroke-linejoin="round"/>
</svg>
