<svg width="25" height="24" viewBox="0 0 25 24" fill="none" xmlns="http://www.w3.org/2000/svg">
<path d="M19.7071 2.79312C18.4882 1.57417 16.5119 1.57417 15.2929 2.79312L6.18463 11.9014C5.80015 12.2859 5.5274 12.7676 5.39552 13.2951L4.52988 16.7577C4.44468 17.0985 4.54453 17.459 4.79291 17.7073C5.04129 17.9557 5.40178 18.0556 5.74256 17.9704L9.20513 17.1047C9.73263 16.9729 10.2144 16.7001 10.5988 16.3156L19.7071 7.20733C20.9261 5.98838 20.9261 4.01207 19.7071 2.79312Z" fill="#E0A75E"/>
<path d="M4.5 21C4.5 20.4477 4.94772 20 5.5 20H19.5C20.0523 20 20.5 20.4477 20.5 21C20.5 21.5523 20.0523 22 19.5 22H5.5C4.94772 22 4.5 21.5523 4.5 21Z" fill="#E0A75E"/>
</svg>
