<svg width="181" height="47" viewBox="0 0 181 47" fill="none" xmlns="http://www.w3.org/2000/svg">
<path d="M35.1113 18.2864H59.5418V24.7576H43.2442V28.0846H56.7699V33.8145H43.2442V37.679H59.5418V44.1643H35.1113V18.2864Z" fill="white"/>
<path d="M61.959 18.2864H79.0856C85.2793 18.2864 89.316 21.4482 89.316 26.2964C89.316 29.8728 87.1272 32.5217 83.9232 33.2594C85.2229 33.889 86.2902 34.9133 86.9726 36.1859L91.09 44.1643H82.3072L78.766 37.2609C77.9931 35.7819 77.1323 35.413 74.3288 35.413H70.0779V44.1643H61.959V18.2864ZM77.7295 30.0555C79.9498 30.0555 81.183 29.1315 81.183 27.4698C81.183 25.8678 79.8866 24.9438 77.7295 24.9438H70.0919V30.0555H77.7295Z" fill="white"/>
<path d="M101.306 24.9438H90.4609V18.2864H120.277V24.9438H109.464V44.1643H101.306V24.9438Z" fill="white"/>
<path d="M121.809 18.2864H146.239V24.7576H129.942V28.0846H143.464V33.8145H129.938V37.679H146.236V44.1643H121.805L121.809 18.2864Z" fill="white"/>
<path d="M163.184 36.4949L156.776 44.1641H146.795L158.35 31.1303L146.795 18.2827H157.208L164.111 25.9554L170.516 18.2862H180.497L168.942 31.32L180.5 44.1641H170.087L163.184 36.4949Z" fill="white"/>
<path d="M13.7021 43.2052C13.3324 43.2046 12.9728 43.3249 12.678 43.5478C12.3831 43.7707 12.1693 44.084 12.0692 44.4398C11.969 44.7956 11.9881 45.1744 12.1234 45.5184C12.2587 45.8624 12.5028 46.1526 12.8186 46.3449C13.1343 46.5371 13.5042 46.6208 13.8719 46.5831C14.2396 46.5454 14.5849 46.3884 14.855 46.1361C15.1251 45.8838 15.3053 45.5501 15.368 45.1858C15.4307 44.8215 15.3724 44.4467 15.2022 44.1186C15.059 43.8443 14.8436 43.6142 14.5793 43.4532C14.3149 43.2923 14.0116 43.2065 13.7021 43.2052Z" fill="white"/>
<path d="M19.836 43.2052C19.4668 43.2053 19.1078 43.3261 18.8136 43.549C18.5194 43.772 18.3061 44.085 18.2062 44.4404C18.1064 44.7958 18.1253 45.174 18.2603 45.5176C18.3952 45.8612 18.6388 46.1513 18.9538 46.3437C19.2689 46.5361 19.6381 46.6203 20.0054 46.5834C20.3727 46.5466 20.7179 46.3907 20.9885 46.1396C21.259 45.8884 21.4401 45.5557 21.5041 45.1922C21.5681 44.8286 21.5115 44.4541 21.343 44.1257C21.2018 43.8477 20.986 43.6144 20.7199 43.4519C20.4538 43.2893 20.1478 43.2039 19.836 43.2052Z" fill="white"/>
<path d="M39.4362 14.3551L35.7861 2.90574L35.1116 0.829468L22.9947 8.33006L22.6434 8.55139L27.4389 10.308C27.3335 10.582 27.1648 11.0106 27.1508 11.0457L25.9387 14.1654C25.4223 15.5074 23.887 19.6881 23.3741 21.0301L21.997 24.5925C21.5754 25.6921 21.1784 26.7952 20.7674 27.8983C20.5332 28.5026 20.3072 29.1057 20.0894 29.7076C19.6209 30.9653 19.1525 32.223 18.6841 33.4807C18.4487 34.1096 18.2168 34.742 17.9815 35.3673C17.8655 35.6835 17.7496 35.9962 17.6302 36.3123C17.5459 36.6233 17.4354 36.9265 17.2999 37.2187H16.2108C13.8687 30.8951 11.5172 24.5714 9.15638 18.2477H0.5C3.87966 26.876 7.25926 35.5008 10.6389 44.1221H11.0184C11.1944 43.5466 11.5506 43.0428 12.0344 42.6849C12.5182 42.327 13.1041 42.1338 13.7059 42.1338C14.3077 42.1338 14.8937 42.327 15.3775 42.6849C15.8613 43.0428 16.2175 43.5466 16.3935 44.1221H17.1488C17.3249 43.5466 17.681 43.0428 18.1648 42.6849C18.6487 42.327 19.2346 42.1338 19.8364 42.1338C20.4382 42.1338 21.0241 42.327 21.5079 42.6849C21.9917 43.0428 22.3479 43.5466 22.524 44.1221H22.9209C25.229 38.2235 30.2985 24.5608 33.7309 15.5601C34.0845 14.6233 34.4148 13.7708 34.7216 13.0026L39.5803 14.8013L39.4362 14.3551Z" fill="white"/>
</svg>
