<svg width="264" height="88" viewBox="0 0 264 88" fill="none" xmlns="http://www.w3.org/2000/svg">
<rect width="264" height="88" rx="12" fill="#F7F7F7"/>
<g clip-path="url(#clip0_2194_18561)">
<path d="M37.2472 24.0332L26.8829 34.3975C25.8158 35.4646 24.4127 35.9963 23.0059 36C21.6028 36 20.2035 35.4646 19.1327 34.3939C18.7524 34.0136 18.4349 33.5853 18.1838 33.1274C17.7554 32.3372 17.5265 31.4437 17.5265 30.5207C17.5229 29.0549 18.0952 27.6776 19.1327 26.6401L29.4933 16.2794C30.2318 15.5409 31.2139 15.1348 32.2626 15.1348C33.3075 15.1311 34.2933 15.5409 35.0318 16.2794C36.5604 17.8079 36.5567 20.2929 35.0318 21.8178L24.6675 32.1821C24.2096 32.6399 23.6114 32.8689 23.0059 32.8688C22.4078 32.8688 21.8059 32.6362 21.3444 32.1821C20.9198 31.7574 20.6946 31.2073 20.665 30.6461C20.6281 30.0037 20.8533 29.3501 21.3444 28.8591L30.601 19.6025C30.9038 19.2997 31.4023 19.296 31.7087 19.6025C32.0152 19.9089 32.0115 20.4074 31.7087 20.7102L22.4521 29.9667C22.1493 30.2695 22.1456 30.768 22.4521 31.0744C22.7623 31.3772 23.257 31.3772 23.5598 31.0744L33.9241 20.7101C34.8398 19.7944 34.8398 18.3028 33.9241 17.387C33.4811 16.9439 32.8903 16.7002 32.2626 16.7002C31.6349 16.7002 31.0441 16.9439 30.6011 17.387L20.2404 27.7477C19.4982 28.4898 19.0921 29.472 19.0921 30.5206C19.0921 31.0154 19.1844 31.4991 19.3653 31.9459C19.5536 32.4443 19.8527 32.8985 20.2404 33.2862C21.769 34.8148 24.2503 34.8148 25.7752 33.2899L36.1395 22.9255C37.1733 21.8917 37.7456 20.5145 37.7419 19.0486C37.7419 17.5865 37.177 16.2092 36.1395 15.1717C35.1057 14.1378 33.7247 13.5692 32.2626 13.5692C30.7967 13.5655 29.4195 14.1378 28.3856 15.1717L18.0251 25.5323C17.7186 25.8387 17.2238 25.8387 16.9174 25.5323C16.6109 25.2258 16.6109 24.731 16.9174 24.4246L27.2779 14.064C28.6071 12.7348 30.3758 12 32.2589 12C34.1419 12 35.9143 12.7311 37.2471 14.064C38.58 15.3969 39.3111 17.1692 39.3111 19.0523C39.3111 20.9353 38.5764 22.704 37.2472 24.0332Z" fill="#32ADE6"/>
<path d="M37.247 24.0332L26.8827 34.3975C25.8156 35.4646 24.4126 35.9963 23.0057 36C21.6026 36 20.2033 35.4647 19.1325 34.3939C18.7522 34.0136 18.4347 33.5853 18.1836 33.1274L19.3651 31.9459C19.5534 32.4444 19.8525 32.8985 20.2402 33.2862C21.7688 34.8148 24.2501 34.8148 25.775 33.2899L36.1393 22.9255C37.1731 21.8917 37.7454 20.5145 37.7417 19.0486C37.7417 17.5865 37.1768 16.2092 36.1393 15.1717L37.247 14.064C38.5799 15.3969 39.311 17.1692 39.311 19.0523C39.311 20.9353 38.5762 22.704 37.247 24.0332Z" fill="#007AFF"/>
<path d="M35.0308 21.8178L24.6665 32.1821C24.2087 32.6399 23.6105 32.8689 23.005 32.8688C22.4069 32.8688 21.805 32.6362 21.3435 32.1821C20.9188 31.7574 20.6936 31.2073 20.6641 30.6461L31.7077 19.6024C32.0142 19.9089 32.0105 20.4074 31.7077 20.7101L22.4512 29.9667C22.1484 30.2695 22.1447 30.768 22.4512 31.0744C22.7613 31.3772 23.2561 31.3772 23.5589 31.0744L33.9232 20.7101C34.8389 19.7944 34.8389 18.3027 33.9232 17.387L35.0309 16.2793C36.5595 17.808 36.5558 20.2929 35.0308 21.8178Z" fill="#007AFF"/>
</g>
<path d="M54.8693 22.4545L58.9176 34.3011H59.081L63.1293 22.4545H65.5014L60.267 37H57.7315L52.4972 22.4545H54.8693ZM71.0394 37.2202C69.9646 37.2202 69.0389 36.9905 68.2624 36.5312C67.4906 36.0672 66.8941 35.4162 66.4727 34.5781C66.056 33.7353 65.8477 32.7481 65.8477 31.6165C65.8477 30.4991 66.056 29.5142 66.4727 28.6619C66.8941 27.8097 67.4812 27.1444 68.234 26.6662C68.9916 26.188 69.877 25.9489 70.8903 25.9489C71.5058 25.9489 72.1024 26.0507 72.68 26.2543C73.2577 26.4579 73.7762 26.7775 74.2354 27.2131C74.6947 27.6487 75.0569 28.2145 75.3221 28.9105C75.5872 29.6018 75.7198 30.4422 75.7198 31.4318V32.1847H67.0479V30.5938H73.6388C73.6388 30.035 73.5252 29.5402 73.2979 29.1094C73.0707 28.6738 72.7511 28.3305 72.3391 28.0795C71.9319 27.8286 71.4537 27.7031 70.9045 27.7031C70.3079 27.7031 69.7871 27.8499 69.342 28.1435C68.9016 28.4323 68.5607 28.8111 68.3192 29.2798C68.0825 29.7438 67.9641 30.2481 67.9641 30.7926V32.0355C67.9641 32.7647 68.092 33.3849 68.3477 33.8963C68.6081 34.4077 68.9703 34.7983 69.4343 35.0682C69.8983 35.3333 70.4405 35.4659 71.0607 35.4659C71.4632 35.4659 71.8301 35.4091 72.1616 35.2955C72.493 35.1771 72.7795 35.0019 73.021 34.7699C73.2624 34.5379 73.4471 34.2514 73.5749 33.9105L75.5849 34.2727C75.4239 34.8646 75.1351 35.383 74.7184 35.8281C74.3065 36.2685 73.788 36.6117 73.163 36.858C72.5427 37.0994 71.8349 37.2202 71.0394 37.2202ZM78.076 37V26.0909H80.1286V27.8239H80.2422C80.4411 27.2367 80.7914 26.7751 81.2933 26.4389C81.8 26.098 82.3729 25.9276 83.0121 25.9276C83.1446 25.9276 83.3009 25.9323 83.4808 25.9418C83.6655 25.9512 83.8099 25.9631 83.9141 25.9773V28.0085C83.8288 27.9848 83.6773 27.9588 83.4595 27.9304C83.2417 27.8973 83.0239 27.8807 82.8061 27.8807C82.3042 27.8807 81.8568 27.9872 81.4638 28.2003C81.0755 28.4086 80.7678 28.6998 80.5405 29.0739C80.3132 29.4432 80.1996 29.8646 80.1996 30.3381V37H78.076ZM91.4886 26.0909V27.7955H85.5298V26.0909H91.4886ZM87.1278 23.4773H89.2514V33.7969C89.2514 34.2088 89.313 34.5189 89.4361 34.7273C89.5592 34.9309 89.7178 35.0705 89.9119 35.1463C90.1108 35.2173 90.3262 35.2528 90.5582 35.2528C90.7287 35.2528 90.8778 35.241 91.0057 35.2173C91.1335 35.1937 91.233 35.1747 91.304 35.1605L91.6875 36.9148C91.5644 36.9621 91.3892 37.0095 91.1619 37.0568C90.9347 37.1089 90.6506 37.1373 90.3097 37.142C89.7509 37.1515 89.2301 37.0521 88.7472 36.8438C88.2642 36.6354 87.8736 36.3134 87.5753 35.8778C87.277 35.4422 87.1278 34.8954 87.1278 34.2372V23.4773ZM98.4222 37.2202C97.3474 37.2202 96.4218 36.9905 95.6452 36.5312C94.8735 36.0672 94.2769 35.4162 93.8555 34.5781C93.4388 33.7353 93.2305 32.7481 93.2305 31.6165C93.2305 30.4991 93.4388 29.5142 93.8555 28.6619C94.2769 27.8097 94.864 27.1444 95.6168 26.6662C96.3744 26.188 97.2598 25.9489 98.2731 25.9489C98.8886 25.9489 99.4852 26.0507 100.063 26.2543C100.641 26.4579 101.159 26.7775 101.618 27.2131C102.078 27.6487 102.44 28.2145 102.705 28.9105C102.97 29.6018 103.103 30.4422 103.103 31.4318V32.1847H94.4308V30.5938H101.022C101.022 30.035 100.908 29.5402 100.681 29.1094C100.453 28.6738 100.134 28.3305 99.7219 28.0795C99.3147 27.8286 98.8365 27.7031 98.2873 27.7031C97.6907 27.7031 97.1699 27.8499 96.7248 28.1435C96.2844 28.4323 95.9435 28.8111 95.7021 29.2798C95.4653 29.7438 95.3469 30.2481 95.3469 30.7926V32.0355C95.3469 32.7647 95.4748 33.3849 95.7305 33.8963C95.9909 34.4077 96.3531 34.7983 96.8171 35.0682C97.2811 35.3333 97.8233 35.4659 98.4435 35.4659C98.846 35.4659 99.213 35.4091 99.5444 35.2955C99.8758 35.1771 100.162 35.0019 100.404 34.7699C100.645 34.5379 100.83 34.2514 100.958 33.9105L102.968 34.2727C102.807 34.8646 102.518 35.383 102.101 35.8281C101.689 36.2685 101.171 36.6117 100.546 36.858C99.9255 37.0994 99.2177 37.2202 98.4222 37.2202ZM106.881 26.0909L109.289 30.3381L111.718 26.0909H114.04L110.638 31.5455L114.069 37H111.746L109.289 32.9233L106.838 37H104.509L107.904 31.5455L104.551 26.0909H106.881ZM123.637 22.4545V37H121.513V22.4545H123.637ZM131.089 37.2202C130.066 37.2202 129.174 36.9858 128.412 36.517C127.649 36.0483 127.057 35.3925 126.636 34.5497C126.215 33.7069 126.004 32.7221 126.004 31.5952C126.004 30.4635 126.215 29.474 126.636 28.6264C127.057 27.7789 127.649 27.1207 128.412 26.652C129.174 26.1832 130.066 25.9489 131.089 25.9489C132.112 25.9489 133.004 26.1832 133.767 26.652C134.529 27.1207 135.121 27.7789 135.542 28.6264C135.964 29.474 136.174 30.4635 136.174 31.5952C136.174 32.7221 135.964 33.7069 135.542 34.5497C135.121 35.3925 134.529 36.0483 133.767 36.517C133.004 36.9858 132.112 37.2202 131.089 37.2202ZM131.096 35.4375C131.759 35.4375 132.308 35.2623 132.744 34.9119C133.18 34.5616 133.502 34.0952 133.71 33.5128C133.923 32.9304 134.029 32.2888 134.029 31.5881C134.029 30.892 133.923 30.2528 133.71 29.6705C133.502 29.0833 133.18 28.6122 132.744 28.2571C132.308 27.902 131.759 27.7244 131.096 27.7244C130.429 27.7244 129.875 27.902 129.434 28.2571C128.999 28.6122 128.674 29.0833 128.461 29.6705C128.253 30.2528 128.149 30.892 128.149 31.5881C128.149 32.2888 128.253 32.9304 128.461 33.5128C128.674 34.0952 128.999 34.5616 129.434 34.9119C129.875 35.2623 130.429 35.4375 131.096 35.4375ZM143.119 41.3182C142.252 41.3182 141.506 41.2045 140.881 40.9773C140.261 40.75 139.754 40.4493 139.362 40.0753C138.969 39.7012 138.675 39.2917 138.481 38.8466L140.306 38.0938C140.434 38.3021 140.604 38.5223 140.817 38.7543C141.035 38.991 141.329 39.1922 141.698 39.358C142.072 39.5237 142.553 39.6065 143.14 39.6065C143.945 39.6065 144.61 39.41 145.136 39.017C145.661 38.6288 145.924 38.0085 145.924 37.1562V35.0114H145.789C145.661 35.2434 145.477 35.5014 145.235 35.7855C144.998 36.0696 144.672 36.3158 144.255 36.5241C143.838 36.7325 143.296 36.8366 142.629 36.8366C141.767 36.8366 140.99 36.6354 140.299 36.233C139.612 35.8258 139.068 35.2268 138.665 34.4361C138.268 33.6406 138.069 32.6629 138.069 31.5028C138.069 30.3428 138.265 29.3485 138.658 28.5199C139.056 27.6913 139.601 27.0568 140.292 26.6165C140.983 26.1714 141.767 25.9489 142.643 25.9489C143.32 25.9489 143.867 26.0625 144.283 26.2898C144.7 26.5123 145.024 26.7727 145.256 27.071C145.493 27.3693 145.675 27.6321 145.803 27.8594H145.96V26.0909H148.04V37.2415C148.04 38.179 147.823 38.9484 147.387 39.5497C146.951 40.151 146.362 40.5961 145.619 40.8849C144.88 41.1738 144.047 41.3182 143.119 41.3182ZM143.097 35.0753C143.708 35.0753 144.224 34.9332 144.646 34.6491C145.072 34.3603 145.394 33.9484 145.612 33.4134C145.834 32.8736 145.945 32.2273 145.945 31.4744C145.945 30.7405 145.836 30.0942 145.619 29.5355C145.401 28.9768 145.081 28.5412 144.66 28.2287C144.238 27.9115 143.718 27.7528 143.097 27.7528C142.458 27.7528 141.925 27.9186 141.499 28.25C141.073 28.5767 140.751 29.0218 140.533 29.5852C140.32 30.1487 140.214 30.7784 140.214 31.4744C140.214 32.1894 140.323 32.8168 140.54 33.3565C140.758 33.8963 141.08 34.3177 141.506 34.6207C141.937 34.9238 142.468 35.0753 143.097 35.0753ZM155.484 37.2202C154.461 37.2202 153.568 36.9858 152.806 36.517C152.044 36.0483 151.452 35.3925 151.031 34.5497C150.609 33.7069 150.398 32.7221 150.398 31.5952C150.398 30.4635 150.609 29.474 151.031 28.6264C151.452 27.7789 152.044 27.1207 152.806 26.652C153.568 26.1832 154.461 25.9489 155.484 25.9489C156.506 25.9489 157.399 26.1832 158.161 26.652C158.924 27.1207 159.515 27.7789 159.937 28.6264C160.358 29.474 160.569 30.4635 160.569 31.5952C160.569 32.7221 160.358 33.7069 159.937 34.5497C159.515 35.3925 158.924 36.0483 158.161 36.517C157.399 36.9858 156.506 37.2202 155.484 37.2202ZM155.491 35.4375C156.154 35.4375 156.703 35.2623 157.138 34.9119C157.574 34.5616 157.896 34.0952 158.104 33.5128C158.317 32.9304 158.424 32.2888 158.424 31.5881C158.424 30.892 158.317 30.2528 158.104 29.6705C157.896 29.0833 157.574 28.6122 157.138 28.2571C156.703 27.902 156.154 27.7244 155.491 27.7244C154.823 27.7244 154.269 27.902 153.829 28.2571C153.393 28.6122 153.069 29.0833 152.856 29.6705C152.647 30.2528 152.543 30.892 152.543 31.5881C152.543 32.2888 152.647 32.9304 152.856 33.5128C153.069 34.0952 153.393 34.5616 153.829 34.9119C154.269 35.2623 154.823 35.4375 155.491 35.4375ZM173.424 26.0909V27.7955H167.259V26.0909H173.424ZM168.95 37V24.8267C168.95 24.1449 169.099 23.5791 169.397 23.1293C169.695 22.6747 170.091 22.3362 170.583 22.1136C171.076 21.8864 171.611 21.7727 172.188 21.7727C172.614 21.7727 172.979 21.8082 173.282 21.8793C173.585 21.9455 173.81 22.0071 173.957 22.0639L173.46 23.7827C173.36 23.7543 173.232 23.7211 173.076 23.6832C172.92 23.6406 172.73 23.6193 172.508 23.6193C171.992 23.6193 171.622 23.7472 171.4 24.0028C171.182 24.2585 171.073 24.6278 171.073 25.1108V37H168.95ZM175.615 37V26.0909H177.739V37H175.615ZM176.688 24.4077C176.318 24.4077 176.001 24.2846 175.736 24.0384C175.475 23.7874 175.345 23.4891 175.345 23.1435C175.345 22.7931 175.475 22.4948 175.736 22.2486C176.001 21.9976 176.318 21.8722 176.688 21.8722C177.057 21.8722 177.372 21.9976 177.632 22.2486C177.897 22.4948 178.03 22.7931 178.03 23.1435C178.03 23.4891 177.897 23.7874 177.632 24.0384C177.372 24.2846 177.057 24.4077 176.688 24.4077ZM182.719 22.4545V37H180.596V22.4545H182.719ZM190.278 37.2202C189.203 37.2202 188.277 36.9905 187.501 36.5312C186.729 36.0672 186.132 35.4162 185.711 34.5781C185.294 33.7353 185.086 32.7481 185.086 31.6165C185.086 30.4991 185.294 29.5142 185.711 28.6619C186.132 27.8097 186.719 27.1444 187.472 26.6662C188.23 26.188 189.115 25.9489 190.129 25.9489C190.744 25.9489 191.341 26.0507 191.918 26.2543C192.496 26.4579 193.014 26.7775 193.474 27.2131C193.933 27.6487 194.295 28.2145 194.56 28.9105C194.826 29.6018 194.958 30.4422 194.958 31.4318V32.1847H186.286V30.5938H192.877C192.877 30.035 192.763 29.5402 192.536 29.1094C192.309 28.6738 191.989 28.3305 191.577 28.0795C191.17 27.8286 190.692 27.7031 190.143 27.7031C189.546 27.7031 189.025 27.8499 188.58 28.1435C188.14 28.4323 187.799 28.8111 187.558 29.2798C187.321 29.7438 187.202 30.2481 187.202 30.7926V32.0355C187.202 32.7647 187.33 33.3849 187.586 33.8963C187.846 34.4077 188.209 34.7983 188.673 35.0682C189.137 35.3333 189.679 35.4659 190.299 35.4659C190.701 35.4659 191.068 35.4091 191.4 35.2955C191.731 35.1771 192.018 35.0019 192.259 34.7699C192.501 34.5379 192.685 34.2514 192.813 33.9105L194.823 34.2727C194.662 34.8646 194.373 35.383 193.957 35.8281C193.545 36.2685 193.026 36.6117 192.401 36.858C191.781 37.0994 191.073 37.2202 190.278 37.2202ZM204.006 37.1349C203.618 37.1349 203.284 36.9976 203.005 36.723C202.726 36.4437 202.586 36.1075 202.586 35.7145C202.586 35.3262 202.726 34.9948 203.005 34.7202C203.284 34.4408 203.618 34.3011 204.006 34.3011C204.395 34.3011 204.728 34.4408 205.008 34.7202C205.287 34.9948 205.427 35.3262 205.427 35.7145C205.427 35.9749 205.361 36.214 205.228 36.4318C205.1 36.6449 204.93 36.8153 204.717 36.9432C204.504 37.071 204.267 37.1349 204.006 37.1349ZM216.375 26.2756C216.299 25.6032 215.987 25.0824 215.438 24.7131C214.888 24.339 214.197 24.152 213.364 24.152C212.767 24.152 212.251 24.2467 211.815 24.4361C211.38 24.6207 211.041 24.8764 210.8 25.2031C210.563 25.5251 210.445 25.892 210.445 26.304C210.445 26.6496 210.525 26.9479 210.686 27.1989C210.852 27.4498 211.067 27.6605 211.332 27.831C211.602 27.9967 211.891 28.1364 212.199 28.25C212.507 28.3589 212.803 28.4489 213.087 28.5199L214.507 28.8892C214.971 29.0028 215.447 29.1567 215.935 29.3509C216.422 29.545 216.875 29.8007 217.291 30.1179C217.708 30.4351 218.044 30.8281 218.3 31.2969C218.56 31.7656 218.69 32.3267 218.69 32.9801C218.69 33.804 218.477 34.5355 218.051 35.1747C217.63 35.8139 217.017 36.3182 216.212 36.6875C215.411 37.0568 214.443 37.2415 213.307 37.2415C212.218 37.2415 211.276 37.0687 210.48 36.723C209.685 36.3774 209.062 35.8873 208.612 35.2528C208.162 34.6136 207.914 33.8561 207.866 32.9801H210.068C210.111 33.5057 210.281 33.9437 210.58 34.294C210.883 34.6397 211.268 34.8977 211.737 35.0682C212.211 35.2339 212.729 35.3168 213.293 35.3168C213.913 35.3168 214.464 35.2197 214.947 35.0256C215.435 34.8267 215.819 34.5521 216.098 34.2017C216.377 33.8466 216.517 33.4323 216.517 32.9588C216.517 32.5279 216.394 32.1752 216.148 31.9006C215.906 31.6259 215.577 31.3987 215.161 31.2188C214.749 31.0388 214.282 30.8802 213.761 30.7429L212.043 30.2741C210.878 29.9569 209.955 29.4905 209.273 28.875C208.596 28.2595 208.257 27.4451 208.257 26.4318C208.257 25.5937 208.484 24.8622 208.939 24.2372C209.393 23.6122 210.009 23.1269 210.786 22.7812C211.562 22.4309 212.438 22.2557 213.413 22.2557C214.398 22.2557 215.267 22.4285 216.02 22.7741C216.777 23.1198 217.374 23.5956 217.81 24.2017C218.245 24.803 218.473 25.4943 218.491 26.2756H216.375ZM222.584 22.4545L226.632 34.3011H226.796L230.844 22.4545H233.216L227.982 37H225.446L220.212 22.4545H222.584ZM244.438 27.0497C244.301 26.6188 244.116 26.233 243.884 25.892C243.657 25.5464 243.384 25.2528 243.067 25.0114C242.75 24.7652 242.388 24.5781 241.98 24.4503C241.578 24.3224 241.135 24.2585 240.652 24.2585C239.833 24.2585 239.095 24.4692 238.436 24.8906C237.778 25.312 237.257 25.9299 236.874 26.7443C236.495 27.554 236.306 28.5459 236.306 29.7202C236.306 30.8991 236.498 31.8958 236.881 32.7102C237.265 33.5246 237.79 34.1425 238.458 34.5639C239.125 34.9853 239.885 35.196 240.738 35.196C241.528 35.196 242.217 35.035 242.804 34.7131C243.396 34.3911 243.853 33.9366 244.175 33.3494C244.502 32.7576 244.665 32.0616 244.665 31.2614L245.233 31.3679H241.071V29.5568H246.789V31.2116C246.789 32.4332 246.528 33.4938 246.007 34.3935C245.491 35.2884 244.776 35.9796 243.863 36.4673C242.953 36.955 241.912 37.1989 240.738 37.1989C239.421 37.1989 238.266 36.8958 237.272 36.2898C236.282 35.6837 235.51 34.8243 234.956 33.7116C234.402 32.5942 234.125 31.2685 234.125 29.7344C234.125 28.5743 234.286 27.5327 234.608 26.6094C234.93 25.6861 235.382 24.9025 235.965 24.2585C236.552 23.6098 237.241 23.1151 238.032 22.7741C238.827 22.4285 239.696 22.2557 240.638 22.2557C241.424 22.2557 242.156 22.3717 242.833 22.6037C243.515 22.8357 244.121 23.1648 244.651 23.5909C245.186 24.017 245.629 24.5237 245.979 25.1108C246.329 25.6932 246.566 26.3395 246.689 27.0497H244.438Z" fill="black"/>
<g clip-path="url(#clip1_2194_18561)">
<path d="M56.5386 56C56.8479 56 57.0986 56.2506 57.0986 56.5597L57.0984 57.6072H63.112L63.1121 56.5665C63.1121 56.2574 63.3628 56.0068 63.6721 56.0068C63.9814 56.0068 64.2321 56.2574 64.2321 56.5665L64.232 57.6072L66.4 57.6072C67.2837 57.6072 68 58.3232 68 59.2064V70.4008C68 71.284 67.2837 72 66.4 72H53.6C52.7163 72 52 71.284 52 70.4008V59.2064C52 58.3232 52.7163 57.6072 53.6 57.6072L55.9784 57.6072L55.9786 56.5597C55.9786 56.2506 56.2293 56 56.5386 56ZM53.12 62.1936V70.4008C53.12 70.6658 53.3349 70.8806 53.6 70.8806H66.4C66.6651 70.8806 66.88 70.6658 66.88 70.4008V62.2048L53.12 62.1936ZM57.3333 67.6949V69.0278H56V67.6949H57.3333ZM60.6667 67.6949V69.0278H59.3333V67.6949H60.6667ZM64 67.6949V69.0278H62.6667V67.6949H64ZM57.3333 64.5134V65.8463H56V64.5134H57.3333ZM60.6667 64.5134V65.8463H59.3333V64.5134H60.6667ZM64 64.5134V65.8463H62.6667V64.5134H64ZM55.9784 58.7264L53.6 58.7267C53.3349 58.7267 53.12 58.9414 53.12 59.2064V61.0744L66.88 61.0856V59.2064C66.88 58.9414 66.6651 58.7267 66.4 58.7267L64.232 58.7264L64.2321 59.4696C64.2321 59.7787 63.9814 60.0293 63.6721 60.0293C63.3628 60.0293 63.1121 59.7787 63.1121 59.4696L63.112 58.7264H57.0984L57.0986 59.4628C57.0986 59.7719 56.8479 60.0225 56.5386 60.0225C56.2293 60.0225 55.9786 59.7719 55.9786 59.4628L55.9784 58.7264Z" fill="#A1A1AA"/>
</g>
<path d="M80.9794 69V67.8864L84.4247 64.3168C84.7926 63.929 85.0959 63.5893 85.3345 63.2976C85.5765 63.0026 85.7571 62.7225 85.8764 62.4574C85.9957 62.1922 86.0554 61.9105 86.0554 61.6122C86.0554 61.2741 85.9759 60.9825 85.8168 60.7372C85.6577 60.4886 85.4406 60.2981 85.1655 60.1655C84.8904 60.0296 84.5805 59.9616 84.2358 59.9616C83.8712 59.9616 83.553 60.0362 83.2812 60.1854C83.0095 60.3345 82.8007 60.545 82.6548 60.8168C82.509 61.0885 82.4361 61.4067 82.4361 61.7713H80.9695C80.9695 61.1515 81.112 60.6096 81.397 60.1456C81.6821 59.6816 82.0732 59.322 82.5703 59.0668C83.0675 58.8082 83.6326 58.679 84.2656 58.679C84.9053 58.679 85.4688 58.8066 85.956 59.0618C86.4465 59.3137 86.8293 59.6584 87.1044 60.0959C87.3795 60.5301 87.517 61.0206 87.517 61.5675C87.517 61.9453 87.4458 62.3149 87.3033 62.6761C87.1641 63.0374 86.9205 63.4401 86.5724 63.8842C86.2244 64.325 85.7405 64.8603 85.1207 65.4901L83.0973 67.608V67.6825H87.6811V69H80.9794ZM89.5653 69V67.8864L93.0107 64.3168C93.3786 63.929 93.6818 63.5893 93.9205 63.2976C94.1624 63.0026 94.343 62.7225 94.4624 62.4574C94.5817 62.1922 94.6413 61.9105 94.6413 61.6122C94.6413 61.2741 94.5618 60.9825 94.4027 60.7372C94.2436 60.4886 94.0265 60.2981 93.7514 60.1655C93.4763 60.0296 93.1664 59.9616 92.8217 59.9616C92.4571 59.9616 92.139 60.0362 91.8672 60.1854C91.5954 60.3345 91.3866 60.545 91.2408 60.8168C91.0949 61.0885 91.022 61.4067 91.022 61.7713H89.5554C89.5554 61.1515 89.6979 60.6096 89.983 60.1456C90.268 59.6816 90.6591 59.322 91.1562 59.0668C91.6534 58.8082 92.2185 58.679 92.8516 58.679C93.4912 58.679 94.0547 58.8066 94.5419 59.0618C95.0324 59.3137 95.4152 59.6584 95.6903 60.0959C95.9654 60.5301 96.103 61.0206 96.103 61.5675C96.103 61.9453 96.0317 62.3149 95.8892 62.6761C95.75 63.0374 95.5064 63.4401 95.1584 63.8842C94.8104 64.325 94.3265 64.8603 93.7067 65.4901L91.6832 67.608V67.6825H96.267V69H89.5653ZM102.856 69H101.225L104.889 58.8182H106.664L110.328 69H108.697L105.819 60.6676H105.739L102.856 69ZM103.129 65.0128H108.419V66.3054H103.129V65.0128ZM118.346 58.8182H119.887V65.5149C119.887 66.2275 119.72 66.8589 119.385 67.4091C119.05 67.956 118.58 68.3868 117.973 68.7017C117.366 69.0133 116.656 69.169 115.84 69.169C115.028 69.169 114.319 69.0133 113.712 68.7017C113.106 68.3868 112.635 67.956 112.3 67.4091C111.966 66.8589 111.798 66.2275 111.798 65.5149V58.8182H113.335V65.3906C113.335 65.8513 113.436 66.2607 113.638 66.6186C113.843 66.9766 114.133 67.2583 114.508 67.4638C114.882 67.666 115.326 67.767 115.84 67.767C116.357 67.767 116.803 67.666 117.178 67.4638C117.555 67.2583 117.844 66.9766 118.043 66.6186C118.245 66.2607 118.346 65.8513 118.346 65.3906V58.8182ZM129.011 62.0348C128.915 61.7332 128.786 61.4631 128.623 61.2244C128.464 60.9825 128.274 60.777 128.052 60.608C127.83 60.4356 127.576 60.3047 127.291 60.2152C127.009 60.1257 126.699 60.081 126.361 60.081C125.788 60.081 125.271 60.2285 124.81 60.5234C124.349 60.8184 123.985 61.2509 123.716 61.821C123.451 62.3878 123.319 63.0821 123.319 63.9041C123.319 64.7294 123.453 65.4271 123.721 65.9972C123.99 66.5672 124.358 66.9998 124.825 67.2947C125.292 67.5897 125.824 67.7372 126.421 67.7372C126.974 67.7372 127.457 67.6245 127.868 67.3991C128.282 67.1738 128.602 66.8556 128.827 66.4446C129.056 66.0303 129.17 65.5431 129.17 64.983L129.568 65.0575H126.655V63.7898H130.657V64.9482C130.657 65.8033 130.474 66.5457 130.11 67.1754C129.749 67.8018 129.248 68.2857 128.608 68.6271C127.972 68.9685 127.243 69.1392 126.421 69.1392C125.5 69.1392 124.691 68.9271 123.995 68.5028C123.302 68.0786 122.762 67.477 122.374 66.6982C121.986 65.916 121.792 64.9879 121.792 63.9141C121.792 63.102 121.905 62.3729 122.131 61.7266C122.356 61.0803 122.672 60.5317 123.08 60.081C123.491 59.6269 123.973 59.2805 124.527 59.0419C125.084 58.8 125.692 58.679 126.351 58.679C126.902 58.679 127.414 58.7602 127.888 58.9226C128.365 59.085 128.789 59.3153 129.16 59.6136C129.535 59.9119 129.845 60.2666 130.09 60.6776C130.335 61.0852 130.501 61.5376 130.587 62.0348H129.011ZM138.127 67.608L138.052 68.1499C138.002 68.5476 137.918 68.9619 137.798 69.3928C137.682 69.8269 137.561 70.2296 137.436 70.6009C137.313 70.9721 137.212 71.267 137.132 71.4858H136.078C136.121 71.2803 136.181 71.0019 136.257 70.6506C136.334 70.3026 136.408 69.9131 136.481 69.4822C136.554 69.0514 136.609 68.6122 136.645 68.1648L136.695 67.608H138.127ZM147.61 58.8182V69H146.069V60.3594H146.009L143.573 61.9503V60.4787L146.113 58.8182H147.61ZM150.364 69V67.8864L153.809 64.3168C154.177 63.929 154.481 63.5893 154.719 63.2976C154.961 63.0026 155.142 62.7225 155.261 62.4574C155.381 62.1922 155.44 61.9105 155.44 61.6122C155.44 61.2741 155.361 60.9825 155.202 60.7372C155.042 60.4886 154.825 60.2981 154.55 60.1655C154.275 60.0296 153.965 59.9616 153.621 59.9616C153.256 59.9616 152.938 60.0362 152.666 60.1854C152.394 60.3345 152.185 60.545 152.04 60.8168C151.894 61.0885 151.821 61.4067 151.821 61.7713H150.354C150.354 61.1515 150.497 60.6096 150.782 60.1456C151.067 59.6816 151.458 59.322 151.955 59.0668C152.452 58.8082 153.017 58.679 153.65 58.679C154.29 58.679 154.854 58.8066 155.341 59.0618C155.831 59.3137 156.214 59.6584 156.489 60.0959C156.764 60.5301 156.902 61.0206 156.902 61.5675C156.902 61.9453 156.831 62.3149 156.688 62.6761C156.549 63.0374 156.305 63.4401 155.957 63.8842C155.609 64.325 155.125 64.8603 154.506 65.4901L152.482 67.608V67.6825H157.066V69H150.364ZM159.949 67.7372C159.678 67.7372 159.444 67.6411 159.248 67.4489C159.053 67.2533 158.955 67.018 158.955 66.7429C158.955 66.4711 159.053 66.2391 159.248 66.0469C159.444 65.8513 159.678 65.7536 159.949 65.7536C160.221 65.7536 160.455 65.8513 160.65 66.0469C160.846 66.2391 160.944 66.4711 160.944 66.7429C160.944 66.9252 160.897 67.0926 160.805 67.245C160.715 67.3942 160.596 67.5135 160.447 67.603C160.297 67.6925 160.132 67.7372 159.949 67.7372ZM159.949 62.6364C159.678 62.6364 159.444 62.5402 159.248 62.348C159.053 62.1525 158.955 61.9171 158.955 61.642C158.955 61.3703 159.053 61.1383 159.248 60.946C159.444 60.7505 159.678 60.6527 159.949 60.6527C160.221 60.6527 160.455 60.7505 160.65 60.946C160.846 61.1383 160.944 61.3703 160.944 61.642C160.944 61.8243 160.897 61.9917 160.805 62.1442C160.715 62.2933 160.596 62.4126 160.447 62.5021C160.297 62.5916 160.132 62.6364 159.949 62.6364ZM162.915 69V67.8864L166.36 64.3168C166.728 63.929 167.031 63.5893 167.27 63.2976C167.512 63.0026 167.693 62.7225 167.812 62.4574C167.931 62.1922 167.991 61.9105 167.991 61.6122C167.991 61.2741 167.911 60.9825 167.752 60.7372C167.593 60.4886 167.376 60.2981 167.101 60.1655C166.826 60.0296 166.516 59.9616 166.171 59.9616C165.807 59.9616 165.489 60.0362 165.217 60.1854C164.945 60.3345 164.736 60.545 164.59 60.8168C164.445 61.0885 164.372 61.4067 164.372 61.7713H162.905C162.905 61.1515 163.048 60.6096 163.333 60.1456C163.618 59.6816 164.009 59.322 164.506 59.0668C165.003 58.8082 165.568 58.679 166.201 58.679C166.841 58.679 167.404 58.8066 167.892 59.0618C168.382 59.3137 168.765 59.6584 169.04 60.0959C169.315 60.5301 169.453 61.0206 169.453 61.5675C169.453 61.9453 169.381 62.3149 169.239 62.6761C169.1 63.0374 168.856 63.4401 168.508 63.8842C168.16 64.325 167.676 64.8603 167.056 65.4901L165.033 67.608V67.6825H169.617V69H162.915ZM171.068 67.0114V65.7685L175.468 58.8182H176.448V60.6477H175.826L172.679 65.6293V65.7088H178.71V67.0114H171.068ZM175.896 69V66.6335L175.906 66.0668V58.8182H177.362V69H175.896ZM184.287 69V58.8182H187.916C188.708 58.8182 189.364 58.9624 189.885 59.2507C190.405 59.5391 190.794 59.9335 191.053 60.4339C191.311 60.9311 191.441 61.4912 191.441 62.1143C191.441 62.7408 191.31 63.3042 191.048 63.8047C190.789 64.3018 190.398 64.6963 189.875 64.9879C189.354 65.2763 188.7 65.4205 187.911 65.4205H185.415V64.1179H187.772C188.272 64.1179 188.678 64.0317 188.99 63.8594C189.301 63.6837 189.53 63.4451 189.676 63.1435C189.822 62.8419 189.895 62.4988 189.895 62.1143C189.895 61.7299 189.822 61.3885 189.676 61.0902C189.53 60.7919 189.3 60.5582 188.985 60.3892C188.673 60.2202 188.262 60.1357 187.752 60.1357H185.823V69H184.287ZM193.242 58.8182H195.106L198.347 66.733H198.467L201.708 58.8182H203.573V69H202.111V61.6321H202.017L199.014 68.9851H197.801L194.798 61.6271H194.703V69H193.242V58.8182Z" fill="#A1A1AA"/>
<defs>
<clipPath id="clip0_2194_18561">
<rect width="24" height="24" fill="white" transform="translate(16 12)"/>
</clipPath>
<clipPath id="clip1_2194_18561">
<rect width="16" height="16" fill="white" transform="translate(52 56)"/>
</clipPath>
</defs>
</svg>
