<svg width="35" height="35" viewBox="0 0 35 35" fill="none" xmlns="http://www.w3.org/2000/svg">
<path d="M25.2592 13.0373L19.1481 7.67993C18.5879 7.17887 17.8627 6.90186 17.1111 6.90186C16.3595 6.90186 15.6343 7.17887 15.0741 7.67993L8.96295 13.0373C8.63944 13.3267 8.38128 13.6816 8.20565 14.0785C8.03003 14.4754 7.94098 14.9052 7.94443 15.3392V24.241C7.94443 25.0514 8.26636 25.8286 8.83938 26.4016C9.41241 26.9747 10.1896 27.2966 11 27.2966H23.2222C24.0326 27.2966 24.8098 26.9747 25.3828 26.4016C25.9558 25.8286 26.2778 25.0514 26.2778 24.241V15.329C26.2798 14.8967 26.19 14.4689 26.0144 14.0739C25.8389 13.6788 25.5815 13.3255 25.2592 13.0373ZM19.1481 25.2596H15.0741V20.167C15.0741 19.8968 15.1814 19.6378 15.3724 19.4468C15.5634 19.2558 15.8225 19.1485 16.0926 19.1485H18.1296C18.3997 19.1485 18.6588 19.2558 18.8498 19.4468C19.0408 19.6378 19.1481 19.8968 19.1481 20.167V25.2596ZM24.2407 24.241C24.2407 24.5112 24.1334 24.7702 23.9424 24.9612C23.7514 25.1523 23.4923 25.2596 23.2222 25.2596H21.1852V20.167C21.1852 19.3566 20.8632 18.5794 20.2902 18.0064C19.7172 17.4333 18.94 17.1114 18.1296 17.1114H16.0926C15.2822 17.1114 14.505 17.4333 13.932 18.0064C13.3589 18.5794 13.037 19.3566 13.037 20.167V25.2596H11C10.7299 25.2596 10.4708 25.1523 10.2798 24.9612C10.0888 24.7702 9.98147 24.5112 9.98147 24.241V15.329C9.98165 15.1844 10.0126 15.0415 10.0723 14.9098C10.132 14.7781 10.2191 14.6606 10.3278 14.5651L16.4389 9.2179C16.6247 9.05461 16.8637 8.96456 17.1111 8.96456C17.3585 8.96456 17.5975 9.05461 17.7833 9.2179L23.8944 14.5651C24.0031 14.6606 24.0901 14.7781 24.1499 14.9098C24.2096 15.0415 24.2405 15.1844 24.2407 15.329V24.241Z" fill="#E4E4E7"/>
</svg>
