<svg width="57" height="57" viewBox="0 0 57 57" fill="none" xmlns="http://www.w3.org/2000/svg">
<g clip-path="url(#clip0_1066_9735)">
<path d="M1.51855 53.2248V3.2249C1.51855 1.56798 2.86168 0.224854 4.5186 0.224854H42.5185C44.1755 0.224854 45.5186 1.56798 45.5186 3.2249V53.2249C45.5186 54.8817 44.1755 56.2249 42.5185 56.2249H4.5186C2.86168 56.2249 1.51855 54.8817 1.51855 53.2248Z" fill="#69ABB5"/>
<path d="M45.5186 41.1737V15.2748C45.1875 15.2495 44.8562 15.2242 44.5185 15.2242C37.3388 15.2242 31.5186 21.0445 31.5186 28.2242C31.5186 35.4039 37.3389 41.2242 44.5185 41.2242C44.8562 41.2242 45.1874 41.1989 45.5186 41.1737Z" fill="#7F8499"/>
<path d="M4.51855 47.2242V9.22426C4.51855 8.67203 4.96634 8.22424 5.51857 8.22424H41.5186C42.0708 8.22424 42.5186 8.67203 42.5186 9.22426V47.2243C42.5186 47.7765 42.0708 48.2243 41.5186 48.2243H5.51846C4.96623 48.2242 4.51855 47.7764 4.51855 47.2242Z" fill="white"/>
<path d="M42.5185 15.3938C36.2909 16.3578 31.5186 21.7265 31.5186 28.2243C31.5186 34.722 36.2909 40.0905 42.5185 41.0547V15.3938Z" fill="#FCEFDB"/>
<path d="M20.5186 4.22475C20.5186 3.67197 20.9663 3.22473 21.5186 3.22473H25.5185C26.0708 3.22473 26.5185 3.67197 26.5185 4.22475C26.5185 4.77753 26.0708 5.22476 25.5185 5.22476H21.5186C20.9663 5.22476 20.5186 4.77753 20.5186 4.22475Z" fill="#5B5D6E"/>
<path d="M16.5186 4.23469C16.5186 3.68191 16.9663 3.22986 17.5186 3.22986C18.0708 3.22986 18.5186 3.67228 18.5186 4.22495V4.23469C18.5186 4.78747 18.0708 5.2347 17.5186 5.2347C16.9663 5.23459 16.5186 4.78736 16.5186 4.23469Z" fill="#464655"/>
<path d="M20.5186 52.2249C20.5186 51.3969 21.1899 50.725 22.0185 50.725H25.0186C25.8472 50.725 26.5185 51.3969 26.5185 52.2249C26.5185 53.053 25.8472 53.7249 25.0186 53.7249H22.0185C21.19 53.7249 20.5186 53.053 20.5186 52.2249Z" fill="#7F8499"/>
<path d="M30.5186 42.2249H22.5186C21.9658 42.2249 21.5186 41.7777 21.5186 41.2249C21.5186 40.6721 21.9658 40.2249 22.5186 40.2249H30.5186C31.0714 40.2249 31.5186 40.6721 31.5186 41.2249C31.5186 41.7777 31.0714 42.2249 30.5186 42.2249Z" fill="white"/>
<path d="M18.5186 42.2249H16.5186C15.9658 42.2249 15.5186 41.7777 15.5186 41.2249C15.5186 40.6721 15.9658 40.2249 16.5186 40.2249H18.5186C19.0714 40.2249 19.5186 40.6721 19.5186 41.2249C19.5186 41.7777 19.0713 42.2249 18.5186 42.2249Z" fill="white"/>
<path d="M23.5185 24.2248C25.7276 24.2248 27.5185 22.4339 27.5185 20.2248C27.5185 18.0157 25.7276 16.2249 23.5185 16.2249C21.3094 16.2249 19.5186 18.0157 19.5186 20.2248C19.5186 22.4339 21.3094 24.2248 23.5185 24.2248Z" fill="#B94B1A"/>
<path d="M42.6364 17.3807C37.9921 18.1504 34.2947 21.9575 33.6329 26.6183C33.0363 30.82 34.8247 34.6343 37.8302 36.9433C36.9868 38.485 36.0388 39.6517 35.3739 40.3748C35.1129 40.6586 35.3686 41.1113 35.7466 41.0348C37.0805 40.7653 39.2809 40.1362 41.221 38.7201C42.6806 39.1784 44.2702 39.3429 45.9224 39.1366C50.6938 38.541 54.6215 34.7759 55.3752 30.0269C56.5669 22.5184 50.1529 16.1352 42.6364 17.3807Z" fill="#E0A75E"/>
<path d="M44.5186 37.2249C49.4892 37.2249 53.5186 33.1955 53.5186 28.2249C53.5186 23.2543 49.4892 19.2249 44.5186 19.2249C39.548 19.2249 35.5186 23.2543 35.5186 28.2249C35.5186 33.1955 39.548 37.2249 44.5186 37.2249Z" fill="#E0A75E"/>
<path d="M49.4686 23.2756C48.3367 22.1437 46.3592 22.1427 45.2255 23.2746C44.6592 23.8409 44.3467 24.595 44.3467 25.3967C44.3467 25.8503 44.4572 26.2842 44.647 26.6822L39.5693 31.7599C39.1787 32.1505 39.1787 32.7834 39.5693 33.174C39.7646 33.3694 40.0205 33.467 40.2763 33.467C40.5321 33.467 40.7881 33.3694 40.9833 33.174L41.6903 32.467L42.3973 33.174C42.5926 33.3694 42.8485 33.467 43.1043 33.467C43.3601 33.467 43.6161 33.3694 43.8113 33.174C44.2019 32.7834 44.2019 32.1505 43.8113 31.7599L43.1043 31.0529L46.0609 28.0963C46.4589 28.2863 46.8928 28.3966 47.3464 28.3966C48.1481 28.3966 48.9012 28.0841 49.4675 27.5178C49.4675 27.5178 49.4675 27.5178 49.4685 27.5178C50.0348 26.9505 50.3463 26.1974 50.3463 25.3967C50.3466 24.595 50.034 23.8411 49.4686 23.2756ZM48.0535 26.1037C48.0535 26.1037 48.0535 26.1037 48.0525 26.1037C47.6765 26.4816 47.0193 26.4816 46.6394 26.1037C46.451 25.9141 46.3464 25.6633 46.3464 25.3967C46.3464 25.1291 46.4499 24.879 46.6394 24.6897C46.829 24.5012 47.0798 24.3967 47.3464 24.3967C47.6141 24.3967 47.8641 24.5001 48.0534 24.6907C48.243 24.8791 48.3464 25.1292 48.3464 25.3967C48.3465 25.6633 48.242 25.9143 48.0535 26.1037Z" fill="white"/>
<path d="M27.8518 26.7344C27.4269 26.3991 26.8271 26.5046 26.4648 26.9068C25.7373 27.7138 24.6917 28.2249 23.5186 28.2249C22.3454 28.2249 21.2998 27.7138 20.5723 26.9066C20.21 26.5044 19.6101 26.399 19.1853 26.7342C17.5622 28.0152 16.5186 29.9965 16.5186 32.2248V35.2249C16.5186 35.6407 16.8556 35.978 17.2717 35.978H29.7656C30.1815 35.978 30.5188 35.6409 30.5188 35.2249V32.2248C30.5186 29.9967 29.4749 28.0152 27.8518 26.7344Z" fill="#B94B1A"/>
<path d="M20.5186 35.2248V32.2248C20.5186 30.5957 21.0807 29.102 22.015 27.9142C21.4623 27.6849 20.9677 27.3452 20.5723 26.9065C20.21 26.5043 19.6104 26.3988 19.1853 26.7341C17.5622 28.0151 16.5186 29.9965 16.5186 32.2248V35.2248C16.5186 35.6407 16.8556 35.9779 17.2717 35.9779H21.2717C20.8558 35.9779 20.5186 35.6407 20.5186 35.2248Z" fill="#C46122"/>
<path d="M22.5186 19.2248C22.5186 18.0425 23.0413 16.9911 23.8568 16.2587C23.7434 16.2491 23.6344 16.2247 23.5185 16.2247C21.3094 16.2247 19.5186 18.0156 19.5186 20.2247C19.5186 22.4337 21.3095 24.2246 23.5185 24.2246C24.5454 24.2246 25.4721 23.8265 26.1803 23.1906C24.1322 23.0163 22.5186 21.3181 22.5186 19.2248Z" fill="#C46122"/>
</g>
<defs>
<clipPath id="clip0_1066_9735">
<rect width="56" height="56" fill="white" transform="translate(0.518555 0.224854)"/>
</clipPath>
</defs>
</svg>
