<svg width="57" height="57" viewBox="0 0 57 57" fill="none" xmlns="http://www.w3.org/2000/svg">
<g clip-path="url(#clip0_1066_9779)">
<path d="M37.3363 32.9055V43.4995C37.3363 45.0617 36.0707 46.3286 34.5072 46.3286H3.34765C1.78545 46.3286 0.518555 45.0617 0.518555 43.4995V26.1543C0.518555 24.5921 1.78545 23.3252 3.34765 23.3252H9.9096L37.3363 32.9055Z" fill="#E0A75E"/>
<path d="M37.3367 37.6359H0.519043V41.3433H37.3367V37.6359Z" fill="#E4F7F9"/>
<path d="M37.3361 32.9055V35.0327H12.6976C12.6976 35.034 12.6976 35.034 12.6976 35.034H7.78223V23.3252H9.90946L37.3361 32.9055Z" fill="#E0A75E"/>
<path d="M56.5188 10.1205H9.91113V32.904H56.5188V10.1205Z" fill="#E4F7F9"/>
<path d="M14.8255 32.9066H9.91016V27.9913C12.6246 27.9913 14.8255 30.1911 14.8255 32.9066Z" fill="#69ABB5"/>
<path d="M9.91016 10.1229H14.8255C14.8255 12.8373 12.6246 15.0382 9.91016 15.0382V10.1229Z" fill="#69ABB5"/>
<path d="M56.5183 10.1229V15.0382C53.8028 15.0382 51.603 12.8374 51.603 10.1229H56.5183Z" fill="#69ABB5"/>
<path d="M56.5183 27.9913V32.9066H51.603C51.6031 30.1911 53.8029 27.9913 56.5183 27.9913Z" fill="#69ABB5"/>
<path d="M33.2143 29.321C36.6315 29.321 39.4018 25.8256 39.4018 21.5138C39.4018 17.202 36.6315 13.7066 33.2143 13.7066C29.7971 13.7066 27.0269 17.202 27.0269 21.5138C27.0269 25.8256 29.7971 29.321 33.2143 29.321Z" fill="#69ABB5"/>
<path d="M53.6842 19.4326H42.4663V21.1674H53.6842V19.4326Z" fill="#69ABB5"/>
<path d="M23.4987 19.4326H12.2808V21.1674H23.4987V19.4326Z" fill="#69ABB5"/>
<path d="M53.6857 22.7002H46.7466V24.435H53.6857V22.7002Z" fill="#69ABB5"/>
<path d="M19.2198 22.7002H12.2808V24.435H19.2198V22.7002Z" fill="#69ABB5"/>
<path d="M32.347 19.0138H34.0819H36.858V17.279H34.0819V15.3552H32.347V17.279H29.5708V22.3807H35.1232V24.0128H34.0819H32.347H29.5708V25.7477H32.347V27.6716H34.0819V25.7477H36.858V20.6459H31.3056V19.0138H32.347Z" fill="#E4F7F9"/>
</g>
<defs>
<clipPath id="clip0_1066_9779">
<rect width="56" height="56" fill="white" transform="translate(0.518555 0.224854)"/>
</clipPath>
</defs>
</svg>
