<svg width="35" height="35" viewBox="0 0 35 35" fill="none" xmlns="http://www.w3.org/2000/svg">
<path d="M26.797 16.9489H26.6304C26.4285 11.86 22.2266 7.78223 17.0894 7.78223C11.9523 7.78223 7.75041 11.86 7.54846 16.9489H7.4248C7.19688 16.9489 6.9783 17.0394 6.81713 17.2006C6.65597 17.3618 6.56543 17.5803 6.56543 17.8083V22.9645C6.56543 23.1924 6.65597 23.411 6.81713 23.5722C6.9783 23.7334 7.19688 23.8239 7.4248 23.8239H8.58066C8.67584 24.6638 9.07667 25.4394 9.7068 26.0029C10.3369 26.5664 11.1523 26.8784 11.9976 26.8794H14.6712V27.1778C14.6712 27.2791 14.7115 27.3763 14.7831 27.4479C14.8547 27.5195 14.9519 27.5598 15.0532 27.5598H17.0904C17.1917 27.5598 17.2888 27.5195 17.3605 27.4479C17.4321 27.3763 17.4723 27.2791 17.4723 27.1778V25.8162C17.4723 25.7149 17.4321 25.6178 17.3605 25.5461C17.2888 25.4745 17.1917 25.4343 17.0904 25.4343H15.0522C14.9509 25.4343 14.8538 25.4745 14.7822 25.5461C14.7105 25.6178 14.6703 25.7149 14.6703 25.8162V26.116H11.9967C11.3538 26.1153 10.7327 25.8834 10.2467 25.4627C9.76064 25.042 9.44214 24.4605 9.34933 23.8244H10.5429C10.6558 23.8244 10.7675 23.8021 10.8718 23.759C10.976 23.7158 11.0708 23.6525 11.1506 23.5727C11.2304 23.4929 11.2937 23.3981 11.3369 23.2939C11.3801 23.1896 11.4023 23.0779 11.4023 22.965V17.8087C11.4023 17.5808 11.3117 17.3622 11.1506 17.2011C10.9894 17.0399 10.7708 16.9494 10.5429 16.9494H10.3519C10.5515 13.4059 13.4968 10.5838 17.0894 10.5838C20.6821 10.5838 23.6302 13.4059 23.8269 16.9498H23.678C23.4501 16.9498 23.2315 17.0404 23.0703 17.2016C22.9091 17.3627 22.8186 17.5813 22.8186 17.8092V22.9655C22.8186 23.1934 22.9091 23.412 23.0703 23.5731C23.2315 23.7343 23.4501 23.8249 23.678 23.8249H26.797C27.0249 23.8249 27.2435 23.7343 27.4047 23.5731C27.5659 23.412 27.6564 23.1934 27.6564 22.9655V17.8092C27.6565 17.6963 27.6344 17.5844 27.5913 17.4801C27.5481 17.3757 27.4848 17.2808 27.405 17.2009C27.3252 17.121 27.2304 17.0576 27.1261 17.0144C27.0218 16.9712 26.91 16.9489 26.797 16.9489ZM15.4342 26.1982H16.7075V26.7964H15.4342V26.1982ZM10.6393 17.8078V22.964C10.6393 22.9894 10.6293 23.0137 10.6114 23.0316C10.5935 23.0495 10.5692 23.0595 10.5439 23.0595H7.4248C7.39948 23.0595 7.37519 23.0495 7.35729 23.0316C7.33938 23.0137 7.32932 22.9894 7.32932 22.964V17.8078C7.32932 17.7825 7.33938 17.7582 7.35729 17.7403C7.37519 17.7224 7.39948 17.7123 7.4248 17.7123H10.5439C10.5692 17.7123 10.5935 17.7224 10.6114 17.7403C10.6293 17.7582 10.6393 17.7825 10.6393 17.8078ZM17.0894 9.81895C13.0757 9.81895 9.78474 12.9834 9.58661 16.9484H8.3133C8.5143 12.2811 12.3739 8.54564 17.0894 8.54564C21.805 8.54564 25.6646 12.2811 25.8656 16.9484H24.5923C24.3922 12.9834 21.1032 9.81895 17.0894 9.81895ZM26.8925 22.9645C26.8925 22.9898 26.8825 23.0141 26.8645 23.032C26.8466 23.0499 26.8224 23.06 26.797 23.06H23.678C23.6526 23.06 23.6284 23.0499 23.6105 23.032C23.5925 23.0141 23.5825 22.9898 23.5825 22.9645V17.8083C23.5825 17.7829 23.5925 17.7587 23.6105 17.7407C23.6284 17.7228 23.6526 17.7128 23.678 17.7128H26.797C26.8224 17.7128 26.8466 17.7228 26.8645 17.7407C26.8825 17.7587 26.8925 17.7829 26.8925 17.8083V22.9645Z" fill="#E4E4E7" stroke="#E4E4E7" stroke-width="0.366667"/>
</svg>
