<svg width="250" height="64" viewBox="0 0 250 64" fill="none" xmlns="http://www.w3.org/2000/svg">
<path d="M48.0723 24.2432H82.0002V33.2301H59.3669V37.8504H78.1507V45.8079H59.3669V51.1747H82.0002V60.1812H48.0723V24.2432Z" fill="#231F20"/>
<path d="M85.3418 24.2432H109.126C117.728 24.2432 123.334 28.6342 123.334 35.3671C123.334 40.3338 120.294 44.0125 115.845 45.0371C117.65 45.9113 119.132 47.3338 120.08 49.1012L125.812 60.1812H113.615L108.702 50.599C107.629 48.545 106.433 48.0327 102.54 48.0327H96.6365V60.1812H85.3418V24.2432ZM107.248 40.5875C110.327 40.5875 112.039 39.3044 112.039 36.9966C112.039 34.7718 110.239 33.4887 107.248 33.4887H96.6365V40.5875H107.248Z" fill="#231F20"/>
<path d="M140.025 33.4887H124.958V24.2432H166.332V33.4887H151.314V60.1812H140.025V33.4887Z" fill="#231F20"/>
<path d="M168.474 24.2432H202.402V33.2301H179.768V37.8504H198.572V45.8079H179.788V51.1747H202.421V60.1812H168.474V24.2432Z" fill="#231F20"/>
<path d="M225.937 49.5306L217.038 60.1812H203.172L219.219 42.0804L203.172 24.2383H217.633L227.221 34.8938L236.139 24.2432H250L233.953 42.3439L249.981 60.1812H235.52L225.937 49.5306Z" fill="#231F20"/>
<path d="M18.3399 58.8496C17.9111 58.8502 17.4906 58.9684 17.1242 59.1911C16.7578 59.4139 16.4594 59.7328 16.2615 60.1132C16.0844 60.4468 15.9923 60.8188 15.9932 61.1964C15.9932 61.5045 16.0539 61.8097 16.1718 62.0944C16.2897 62.3792 16.4626 62.6379 16.6805 62.8558C16.8984 63.0737 17.1571 63.2466 17.4419 63.3645C17.7266 63.4824 18.0317 63.5431 18.3399 63.5431C18.6481 63.5431 18.9533 63.4824 19.238 63.3645C19.5227 63.2466 19.7814 63.0737 19.9993 62.8558C20.2172 62.6379 20.3901 62.3792 20.508 62.0944C20.626 61.8097 20.6867 61.5045 20.6867 61.1964C20.685 60.8212 20.5948 60.4518 20.4232 60.1181C20.2256 59.7361 19.9267 59.4157 19.5593 59.192C19.1919 58.9682 18.7701 58.8498 18.3399 58.8496Z" fill="#E0A75E"/>
<path d="M26.8585 58.8496C26.4289 58.8493 26.0076 58.9682 25.6416 59.193C25.2755 59.4178 24.979 59.7397 24.7849 60.123C24.609 60.4535 24.5169 60.822 24.5166 61.1964C24.5166 61.8188 24.7638 62.4157 25.204 62.8558C25.6441 63.2959 26.241 63.5431 26.8634 63.5431C27.4858 63.5431 28.0827 63.2959 28.5228 62.8558C28.9629 62.4157 29.2101 61.8188 29.2101 61.1964C29.2094 60.8254 29.1226 60.4596 28.9564 60.1279C28.7577 59.7429 28.4568 59.4199 28.0868 59.1945C27.7167 58.969 27.2918 58.8497 26.8585 58.8496Z" fill="#E0A75E"/>
<path d="M54.0778 18.7838L49.0086 2.88344L48.0719 0L31.2494 10.4165L30.7615 10.7238L37.4212 13.1633C37.2749 13.5439 37.0407 14.1391 37.0212 14.1879L35.3379 18.5203C34.6207 20.3841 32.4887 26.19 31.7763 28.0537C31.1372 29.7028 30.5029 31.347 29.8687 33.0009C29.2783 34.528 28.727 36.06 28.1562 37.592C27.8309 38.4312 27.517 39.2687 27.2146 40.1046C26.564 41.8513 25.9135 43.5979 25.263 45.3446C24.9361 46.2179 24.6141 47.0961 24.2872 47.9646L23.7993 49.277C23.6708 49.709 23.5076 50.1299 23.3114 50.5357H21.799C18.5464 41.7537 15.2807 32.9717 12.0021 24.1896H0L14.0805 60.1228H14.6367C14.8812 59.3236 15.3758 58.624 16.0477 58.1269C16.7196 57.6298 17.5333 57.3615 18.3691 57.3615C19.2049 57.3615 20.0186 57.6298 20.6905 58.1269C21.3624 58.624 21.8569 59.3236 22.1015 60.1228H23.126C23.3692 59.3217 23.8636 58.62 24.5361 58.1214C25.2086 57.6227 26.0236 57.3535 26.8608 57.3535C27.698 57.3535 28.5131 57.6227 29.1856 58.1214C29.8581 58.62 30.3524 59.3217 30.5956 60.1228H31.1421C34.3524 51.9311 41.3878 32.957 46.1545 20.4573C46.6424 19.1692 47.1303 17.9837 47.5303 16.9054L54.2779 19.4034L54.0778 18.7838Z" fill="#E0A75E"/>
</svg>
